<?xml version="1.0" encoding="utf-8"?>
<!DOCTYPE svg PUBLIC "-//W3C//DTD SVG 20010904//EN" "http://www.w3.org/TR/2001/REC-SVG-20010904/DTD/svg10.dtd">
<svg version="1.0" xmlns="http://www.w3.org/2000/svg" width="258pt" height="258pt" viewBox="0 0 258 258" style="" preserveAspectRatio="xMidYMid meet">
<g fill="#000000FF">
<path d="M 105.834 2.567 C 79.675 7.300 56.215 19.885 37.269 39.346 C 26.746 50.155 20.624 58.554 14.451 70.650 C 5.224 88.731 1.000 107.054 1.000 129.000 C 1.000 165.392 13.694 195.759 39.346 220.731 C 50.155 231.254 58.554 237.376 70.650 243.549 C 88.731 252.776 107.054 257.000 129.000 257.000 C 150.946 257.000 169.269 252.776 187.350 243.549 C 199.446 237.376 207.845 231.254 218.654 220.731 C 238.418 201.491 250.829 178.126 255.493 151.378 C 257.440 140.216 257.440 117.784 255.493 106.622 C 252.245 87.992 244.333 69.131 233.394 53.938 C 226.749 44.709 212.115 30.204 202.850 23.662 C 188.453 13.498 169.327 5.637 151.378 2.507 C 140.617 0.630 116.360 0.662 105.834 2.567 M 156.201 64.447 C 167.662 67.578 173.728 69.841 179.000 72.954 C 185.454 76.764 197.085 88.378 198.945 92.868 C 199.659 94.590 200.607 96.000 201.053 96.000 C 201.498 96.000 203.093 99.713 204.597 104.250 C 206.922 111.268 207.389 114.591 207.722 126.500 C 208.078 139.242 207.887 141.245 205.598 148.787 C 204.215 153.345 202.165 158.365 201.042 159.942 C 199.919 161.519 198.991 163.414 198.981 164.154 C 198.970 164.894 196.192 168.581 192.806 172.348 C 187.548 178.197 184.708 180.601 177.600 185.214 C 171.631 189.089 158.712 192.892 148.750 193.707 L 143.000 194.178 143.000 187.171 C 143.000 177.577 143.323 177.000 148.690 177.000 C 153.718 177.000 167.300 171.991 170.564 168.934 C 171.700 167.870 172.903 167.000 173.238 167.000 C 173.572 167.000 175.231 165.615 176.923 163.923 C 178.615 162.231 180.000 160.572 180.000 160.238 C 180.000 159.903 180.843 158.700 181.874 157.564 C 185.712 153.338 188.327 143.222 188.779 130.856 C 189.159 120.455 188.932 118.348 186.655 111.113 C 182.548 98.065 176.053 90.519 164.000 84.795 C 155.489 80.753 149.842 79.780 131.750 79.242 L 115.000 78.744 115.000 121.291 C 115.000 157.089 114.745 164.833 113.394 170.107 C 110.632 180.888 105.592 186.947 95.198 191.982 C 89.024 194.973 88.819 195.000 72.234 194.986 C 63.030 194.979 54.488 194.701 53.250 194.370 C 51.144 193.805 51.000 193.232 51.000 185.383 C 51.000 177.182 51.053 177.000 53.419 177.000 C 54.750 177.000 58.687 177.731 62.169 178.624 C 69.084 180.398 83.333 180.067 85.313 178.087 C 85.911 177.489 87.007 177.000 87.748 177.000 C 88.489 177.000 90.162 175.763 91.464 174.250 C 95.258 169.845 96.136 157.866 95.797 115.139 L 95.500 77.778 82.339 77.937 C 72.493 78.056 68.973 77.769 68.366 76.798 C 67.517 75.438 66.989 65.046 67.704 63.750 C 67.932 63.338 86.745 63.000 109.510 63.000 C 142.526 63.000 151.975 63.293 156.201 64.447 "/></g>
<g fill="#FFFFFFFF">
<path d="M 67.704 63.750 C 66.989 65.046 67.517 75.438 68.366 76.798 C 68.973 77.769 72.493 78.056 82.339 77.937 L 95.500 77.778 95.797 115.139 C 96.136 157.866 95.258 169.845 91.464 174.250 C 90.162 175.763 88.489 177.000 87.748 177.000 C 87.007 177.000 85.911 177.489 85.313 178.087 C 83.333 180.067 69.084 180.398 62.169 178.624 C 58.687 177.731 54.750 177.000 53.419 177.000 C 51.053 177.000 51.000 177.182 51.000 185.383 C 51.000 193.232 51.144 193.805 53.250 194.370 C 54.488 194.701 63.030 194.979 72.234 194.986 C 88.819 195.000 89.024 194.973 95.198 191.982 C 105.592 186.947 110.632 180.888 113.394 170.107 C 114.745 164.833 115.000 157.089 115.000 121.291 L 115.000 78.744 131.750 79.242 C 149.842 79.780 155.489 80.753 164.000 84.795 C 176.053 90.519 182.548 98.065 186.655 111.113 C 188.932 118.348 189.159 120.455 188.779 130.856 C 188.327 143.222 185.712 153.338 181.874 157.564 C 180.843 158.700 180.000 159.903 180.000 160.238 C 180.000 160.572 178.615 162.231 176.923 163.923 C 175.231 165.615 173.572 167.000 173.238 167.000 C 172.903 167.000 171.700 167.870 170.564 168.934 C 167.300 171.991 153.718 177.000 148.690 177.000 C 143.323 177.000 143.000 177.577 143.000 187.171 L 143.000 194.178 148.750 193.707 C 158.712 192.892 171.631 189.089 177.600 185.214 C 184.708 180.601 187.548 178.197 192.806 172.348 C 196.192 168.581 198.970 164.894 198.981 164.154 C 198.991 163.414 199.919 161.519 201.042 159.942 C 202.165 158.365 204.215 153.345 205.598 148.787 C 207.887 141.245 208.078 139.242 207.722 126.500 C 207.389 114.591 206.922 111.268 204.597 104.250 C 203.093 99.713 201.498 96.000 201.053 96.000 C 200.607 96.000 199.659 94.590 198.945 92.868 C 197.085 88.378 185.454 76.764 179.000 72.954 C 173.728 69.841 167.662 67.578 156.201 64.447 C 151.975 63.293 142.526 63.000 109.510 63.000 C 86.745 63.000 67.932 63.338 67.704 63.750 "/></g>
</svg>
